<?xml version="1.0" encoding="UTF-8" standalone="no"?>
<svg
   width="80mm"
   height="35mm"
   version="1.1"
   id="svg8"
   xmlns="http://www.w3.org/2000/svg"
   xmlns:svg="http://www.w3.org/2000/svg">
  <defs
     id="defs8" />
  <style
     id="style1">
    text            { font-family: FreeMono; font-size: 18mm; }
    text#consulting { font-size: 13mm;                        }

    .border, text   { fill: #434662;                    }
    #background     { fill: #dde3eb;                    }
    #symbols rect   { fill: #cdd6e2; fill-opacity: 0.6; }
  </style>
  <rect
     id="background"
     x="0"
     y="0"
     width="100%"
     height="100%" />
  <g
     id="background-borders">
    <rect
       class="border"
       x="0"
       y="0"
       width="100%"
       height="1mm"
       id="rect1" />
    <rect
       class="border"
       x="0"
       y="34mm"
       width="100%"
       height="1mm"
       id="rect2" />
  </g>
  <g
     id="symbols">
    <rect
       width="20mm"
       height="20mm"
       x="13mm"
       y="-8mm"
       rx="3mm"
       transform="rotate(45)"
       id="rect3" />
    <rect
       width="20mm"
       height="20mm"
       x="20mm"
       y="-15mm"
       rx="3mm"
       transform="rotate(45)"
       id="rect4" />
    <rect
       width="20mm"
       height="20mm"
       x="27mm"
       y="-22mm"
       rx="3mm"
       transform="rotate(45)"
       id="rect5" />
    <rect
       width="20mm"
       height="20mm"
       x="34mm"
       y="-29mm"
       rx="3mm"
       transform="rotate(45)"
       id="rect6" />
    <rect
       width="20mm"
       height="20mm"
       x="41mm"
       y="-36mm"
       rx="3mm"
       transform="rotate(45)"
       id="rect7" />
    <rect
       width="20mm"
       height="20mm"
       x="48mm"
       y="-43mm"
       rx="3mm"
       transform="rotate(45)"
       id="rect8" />
  </g>
  <g
     id="text">
    <path
       d="m 30.15307,57.683151 h 7.143307 q 1.83685,0 1.83685,1.36063 0,1.428662 -1.83685,1.428662 H 20.220472 q -1.83685,0 -1.83685,-1.428662 0,-1.36063 1.83685,-1.36063 h 7.143307 V 24.960003 h -11.36126 v 4.966299 q 0,1.83685 -1.428661,1.83685 -1.36063,0 -1.36063,-1.83685 v -7.755591 h 31.022361 v 7.755591 q 0,1.83685 -1.360629,1.83685 -0.612284,0 -1.020473,-0.47622 -0.408189,-0.544252 -0.408189,-1.36063 V 24.960003 H 30.15307 Z M 57.637821,34.756538 q 0,-1.496693 4.626142,-2.517165 4.626141,-1.088504 7.211338,-1.088504 4.762205,0 7.823622,2.381102 3.129449,2.381102 3.129449,5.986771 v 18.164409 h 3.6737 q 1.836851,0 1.836851,1.36063 0,1.428662 -1.836851,1.428662 H 77.63908 v -4.55811 q -6.054803,5.646614 -12.994015,5.646614 -4.762204,0 -7.687559,-2.381103 -2.925354,-2.449134 -2.925354,-6.326929 0,-4.422047 3.945827,-7.143307 4.013858,-2.789291 10.408818,-2.789291 4.013858,0 9.252283,1.428662 v -4.830237 q 0,-2.517165 -2.31307,-4.013858 -2.313071,-1.564724 -6.054803,-1.564724 -3.129449,0 -6.462992,1.088504 -3.333543,1.088504 -3.877795,1.088504 -0.544252,0 -0.952441,-0.408189 -0.340158,-0.408189 -0.340158,-0.952441 z M 77.63908,52.852915 v -6.122834 q -4.081889,-1.020473 -8.708031,-1.020473 -5.374488,0 -8.776063,2.040945 -3.333543,1.972914 -3.333543,5.170394 0,2.653228 2.108977,4.285984 2.108976,1.564724 5.646614,1.564724 3.605669,0 6.599055,-1.36063 3.061417,-1.360629 6.462991,-4.55811 z m 43.06396,-0.340157 q 0,-2.517165 -2.31307,-3.877795 -2.31307,-1.36063 -5.57858,-1.836851 -3.26551,-0.47622 -6.53102,-1.020472 -3.26551,-0.544252 -5.57859,-2.245039 -2.313066,-1.700788 -2.313066,-4.694174 0,-3.333543 3.265516,-5.510551 3.33354,-2.177007 8.36787,-2.177007 5.78268,0 9.32031,3.129448 v -0.272126 q 0,-1.904881 1.42867,-1.904881 1.36063,0 1.36063,1.904881 v 4.694174 q 0,1.83685 -1.36063,1.83685 -1.22457,0 -1.42867,-1.564725 -0.27212,-2.31307 -2.72126,-3.6737 -2.44913,-1.36063 -6.32692,-1.36063 -3.80977,0 -6.32693,1.496693 -2.51717,1.428661 -2.51717,3.605669 0,2.040945 2.31307,3.129449 2.31307,1.088504 5.57858,1.564724 3.26552,0.408189 6.53103,1.088504 3.26551,0.612283 5.57858,2.585197 2.31307,1.904882 2.31307,5.170393 0,3.877795 -3.80976,6.462992 -3.74173,2.517166 -9.52441,2.517166 -6.53103,0 -10.680946,-3.673701 v 0.748346 q 0,1.836851 -1.36063,1.836851 -1.428662,0 -1.428662,-1.836851 v -5.646614 q 0,-1.83685 1.428662,-1.83685 1.36063,0 1.36063,1.496693 v 0.47622 q 0,2.313071 3.061416,4.013858 3.06142,1.632756 7.41543,1.632756 4.49008,0 7.48347,-1.768819 2.99338,-1.768818 2.99338,-4.490078 z m 45.44507,-5.578583 h -28.3011 q 0.74834,5.374488 4.49008,8.64 3.74173,3.19748 9.25228,3.19748 3.19748,0 6.53102,-1.020472 3.33355,-1.020473 5.37449,-2.653228 0.68032,-0.476221 1.0885,-0.476221 0.54426,0 0.88441,0.408189 0.40819,0.408189 0.40819,0.952441 0,1.768819 -4.89826,3.673701 -4.83024,1.904882 -9.45638,1.904882 -6.87118,0 -11.70142,-4.626142 -4.7622,-4.626142 -4.7622,-11.225197 0,-6.190866 4.49008,-10.340787 4.49007,-4.217952 11.0211,-4.217952 6.87118,0 11.22519,4.354015 4.35402,4.285984 4.35402,11.429291 z m -28.3011,-2.789291 h 25.44378 q -0.81638,-4.626142 -4.28599,-7.415433 -3.4696,-2.789291 -8.4359,-2.789291 -4.9663,0 -8.36788,2.789291 -3.40157,2.72126 -4.35401,7.415433 z m 69.12002,-7.075275 q -0.34015,0 -2.10897,-1.428662 -1.76882,-1.428661 -3.46961,-1.428661 -2.31307,0 -4.83024,1.632756 -2.44913,1.632756 -8.09574,6.803149 v 15.03496 h 12.17763 q 1.83685,0 1.83685,1.428662 0,1.36063 -1.83685,1.36063 h -21.49795 q -1.83685,0 -1.83685,-1.428662 0,-1.36063 1.83685,-1.36063 h 6.53103 v -22.79055 h -5.10237 q -1.83685,0 -1.83685,-1.428662 0,-1.360629 1.83685,-1.360629 h 7.89166 v 6.939212 q 4.69417,-4.285984 7.61952,-5.91874 2.92536,-1.700787 5.51056,-1.700787 2.72125,0 4.7622,1.632755 2.04094,1.632756 2.04094,2.585197 0,0.612284 -0.40818,1.020473 -0.40819,0.408189 -1.02048,0.408189 z m 35.30838,23.402834 v -4.490079 q -5.71465,5.578583 -12.38174,5.578583 -4.08189,0 -6.59905,-2.449134 -2.44913,-2.449134 -2.44913,-6.462992 v -17.75622 h -3.67371 q -1.83685,0 -1.83685,-1.428662 0,-1.360629 1.83685,-1.360629 h 6.463 v 20.545511 q 0,2.585197 1.76882,4.354015 1.83685,1.768819 4.42204,1.768819 6.80315,0 12.44977,-6.122834 v -17.75622 h -5.03433 q -1.90489,0 -1.90489,-1.428662 0,-1.360629 1.90489,-1.360629 h 7.82362 v 25.579841 h 2.31307 q 1.83685,0 1.83685,1.36063 0,1.428662 -1.83685,1.428662 z m 45.1049,-41.091023 v 38.301731 h 3.6737 q 1.83686,0 1.83686,1.36063 0,1.428662 -1.83686,1.428662 h -6.46299 V 54.41764 q -4.83023,7.143307 -12.38173,7.143307 -6.0548,0 -10.40882,-4.490079 -4.28598,-4.490079 -4.28598,-10.748976 0,-6.258898 4.28598,-10.680945 4.35402,-4.490078 10.40882,-4.490078 7.48347,0 12.38173,7.075275 V 22.170711 h -3.6737 q -1.83685,0 -1.83685,-1.428661 0,-1.36063 1.83685,-1.36063 z m -14.96692,14.55874 q -5.03434,0 -8.57197,3.605669 -3.53764,3.605669 -3.53764,8.776063 0,5.238425 3.53764,8.844094 3.53763,3.605669 8.64,3.605669 5.03433,0 8.57197,-3.605669 3.53763,-3.605669 3.53763,-8.708031 0,-5.306457 -3.53763,-8.912126 -3.46961,-3.605669 -8.64,-3.605669 z"
       id="taserud"
       style="font-size:68.0315px;font-family:FreeMono;fill:#434662"
       aria-label="Taserud" />
    <path
       d="m 6.8749607,86.078737 q 0,-0.933543 0.2456693,-2.260157 0.2948031,-1.375748 1.1300787,-3.193701 0.8352756,-1.817952 2.0636223,-3.291968 1.228346,-1.474016 3.43937,-2.505827 2.211023,-1.080945 5.011653,-1.080945 4.96252,0 8.500158,3.390236 v -1.424882 q 0,-1.326614 1.031811,-1.326614 0.982677,0 0.982677,1.326614 v 5.502993 q 0,1.326614 -1.031811,1.326614 -0.88441,0 -0.982677,-1.179213 -0.147402,-2.260157 -2.702363,-3.930709 -2.505826,-1.670551 -5.797795,-1.670551 -4.07811,0 -6.977008,3.144567 -2.8988971,3.095433 -2.8988971,7.468347 v 3.488503 q 0,4.422048 3.1937011,7.714016 3.1937,3.24283 7.51748,3.24283 2.55496,0 4.569449,-1.031806 2.014488,-1.031811 3.979842,-3.390236 0.442205,-0.491339 0.88441,-0.491339 0.982677,0 0.982677,0.933543 0,0.442205 -0.786142,1.375748 -0.786142,0.933544 -2.063622,2.01449 -1.27748,1.03181 -3.341102,1.81795 -2.063622,0.78614 -4.225512,0.78614 -5.011654,0 -8.893228,-3.832438 Q 6.8749607,95.119367 6.8749607,90.156848 Z M 48.000018,80.870549 q 4.716851,0 7.959685,3.242834 3.242835,3.193701 3.242835,7.861417 0,4.520315 -3.291969,7.714016 -3.291968,3.144564 -7.910551,3.144564 -4.667716,0 -7.959685,-3.193698 -3.242834,-3.193701 -3.242834,-7.812283 0,-4.520315 3.242834,-7.714016 3.291969,-3.242834 7.959685,-3.242834 z m 0,2.014488 q -3.832441,0 -6.534803,2.604094 -2.653228,2.604095 -2.653228,6.338268 0,3.734173 2.653228,6.387401 2.702362,2.60409 6.534803,2.60409 3.783307,0 6.48567,-2.60409 2.702362,-2.604094 2.702362,-6.24 0,-3.881574 -2.653229,-6.485669 -2.653228,-2.604094 -6.534803,-2.604094 z m 30.413877,0 q -0.88441,0 -1.719685,0.196535 -0.786142,0.147402 -1.52315,0.540473 -0.687874,0.343937 -1.179212,0.687874 -0.491339,0.294803 -1.080945,0.884409 -0.540473,0.589606 -0.786142,0.884409 -0.196535,0.24567 -0.687874,0.88441 -0.442205,0.589606 -0.491338,0.63874 v 12.430863 h 2.211023 q 1.326614,0 1.326614,0.98268 0,1.03181 -1.326614,1.03181 h -6.436535 q -1.375748,0 -1.375748,-1.03181 0,-0.98268 1.375748,-0.98268 H 68.93106 V 83.572911 h -1.670551 q -1.326614,0 -1.326614,-1.031811 0,-0.982677 1.326614,-0.982677 h 3.68504 v 3.390236 q 2.112755,-2.358425 3.734173,-3.193701 1.621417,-0.884409 3.930708,-0.884409 3.291969,0 5.502992,1.91622 2.211024,1.91622 2.211024,4.765984 v 12.479997 h 1.670551 q 1.326614,0 1.326614,0.98268 0,1.03181 -1.326614,1.03181 h -5.35559 q -1.326614,0 -1.326614,-1.03181 0,-0.98268 1.326614,-0.98268 h 1.670551 V 87.89669 q 0,-2.112756 -1.621417,-3.537638 -1.572284,-1.474015 -4.274646,-1.474015 z M 114.42903,96.29858 q 0,-1.817953 -1.67055,-2.80063 -1.67055,-0.982677 -4.02897,-1.326614 -2.35843,-0.343937 -4.71685,-0.737008 -2.35843,-0.393071 -4.028981,-1.621417 -1.670551,-1.228347 -1.670551,-3.390237 0,-2.407559 2.358422,-3.979842 2.40756,-1.572283 6.04347,-1.572283 4.17638,0 6.73134,2.260157 v -0.196535 q 0,-1.375748 1.03181,-1.375748 0.98267,0 0.98267,1.375748 v 3.390236 q 0,1.326614 -0.98267,1.326614 -0.88441,0 -1.03181,-1.130079 -0.19654,-1.670551 -1.96536,-2.653228 -1.76882,-0.982677 -4.56945,-0.982677 -2.75149,0 -4.56945,1.080945 -1.81795,1.031811 -1.81795,2.604094 0,1.474016 1.67055,2.260157 1.67055,0.786142 4.02898,1.130079 2.35842,0.294803 4.71685,0.786142 2.35842,0.442205 4.02898,1.867087 1.67055,1.375748 1.67055,3.734173 0,2.80063 -2.7515,4.667716 -2.70236,1.81795 -6.87874,1.81795 -4.71685,0 -7.714015,-2.65323 v 0.54048 q 0,1.32661 -0.982677,1.32661 -1.031811,0 -1.031811,-1.32661 v -4.078113 q 0,-1.326614 1.031811,-1.326614 0.982677,0 0.982677,1.080945 v 0.343937 q 0,1.670551 2.211025,2.898897 2.21102,1.179208 5.35559,1.179208 3.24283,0 5.40472,-1.277476 2.16189,-1.27748 2.16189,-3.242834 z m 28.84159,5.74866 v -3.242833 q -4.12724,4.028973 -8.94236,4.028973 -2.94803,0 -4.76598,-1.76882 -1.76882,-1.768815 -1.76882,-4.667712 V 83.572911 h -2.65323 q -1.32661,0 -1.32661,-1.031811 0,-0.982677 1.32661,-0.982677 h 4.66772 v 14.838425 q 0,1.867086 1.27748,3.144566 1.32661,1.277476 3.1937,1.277476 4.91338,0 8.99149,-4.422042 V 83.572911 h -3.6359 q -1.37575,0 -1.37575,-1.031811 0,-0.982677 1.37575,-0.982677 h 5.65039 v 18.474327 h 1.67055 q 1.32662,0 1.32662,0.98268 0,1.03181 -1.32662,1.03181 z m 23.63341,-29.676849 v 27.662359 h 7.86142 q 1.37575,0 1.37575,0.98268 0,1.03181 -1.37575,1.03181 h -17.73732 q -1.32662,0 -1.32662,-1.03181 0,-0.98268 1.32662,-0.98268 h 7.86142 V 74.384879 h -5.74867 q -1.32661,0 -1.32661,-1.031811 0,-0.982677 1.32661,-0.982677 z m 22.8964,9.188032 h 10.80945 q 1.32661,0 1.32661,0.982677 0,1.031811 -1.32661,1.031811 h -10.80945 v 13.11874 q 0,1.867086 1.47401,2.997165 1.47402,1.130074 4.02898,1.130074 2.06362,0 4.37291,-0.54047 2.35843,-0.589604 3.78331,-1.42488 0.49134,-0.294803 0.78614,-0.294803 0.34394,0 0.63874,0.294803 0.29481,0.294804 0.29481,0.687874 0,1.080946 -3.34111,2.211026 -3.29196,1.08094 -6.43653,1.08094 -3.48851,0 -5.55213,-1.62141 -2.06362,-1.670556 -2.06362,-4.422052 V 83.572911 h -3.6359 q -1.37575,0 -1.37575,-1.031811 0,-0.982677 1.37575,-0.982677 h 3.6359 v -5.84693 q 0,-1.326614 1.03181,-1.326614 0.98268,0 0.98268,1.326614 z m 36.06427,0 v 18.474327 h 7.86141 q 1.37575,0 1.37575,0.98268 0,1.03181 -1.37575,1.03181 h -17.73732 q -1.32661,0 -1.32661,-1.03181 0,-0.98268 1.32661,-0.98268 h 7.86142 V 83.572911 h -5.7978 q -1.32661,0 -1.32661,-1.031811 0,-0.982677 1.32661,-0.982677 z m -0.0983,-10.170709 v 5.109921 h -2.8989 v -5.109921 z m 29.52946,11.497323 q -0.8844,0 -1.71968,0.196535 -0.78614,0.147402 -1.52315,0.540473 -0.68787,0.343937 -1.17921,0.687874 -0.49134,0.294803 -1.08095,0.884409 -0.54047,0.589606 -0.78614,0.884409 -0.19653,0.24567 -0.68787,0.88441 -0.44221,0.589606 -0.49134,0.63874 v 12.430863 h 2.21102 q 1.32662,0 1.32662,0.98268 0,1.03181 -1.32662,1.03181 h -6.43653 q -1.37575,0 -1.37575,-1.03181 0,-0.98268 1.37575,-0.98268 h 2.21102 V 83.572911 h -1.67055 q -1.32661,0 -1.32661,-1.031811 0,-0.982677 1.32661,-0.982677 h 3.68504 v 3.390236 q 2.11275,-2.358425 3.73417,-3.193701 1.62142,-0.884409 3.93071,-0.884409 3.29197,0 5.50299,1.91622 2.21103,1.91622 2.21103,4.765984 v 12.479997 h 1.67055 q 1.32661,0 1.32661,0.98268 0,1.03181 -1.32661,1.03181 h -5.35559 q -1.32662,0 -1.32662,-1.03181 0,-0.98268 1.32662,-0.98268 h 1.67055 V 87.89669 q 0,-2.112756 -1.62142,-3.537638 -1.57228,-1.474015 -4.27465,-1.474015 z m 35.42553,2.751496 v -4.07811 h 4.66772 q 1.32661,0 1.32661,0.982677 0,1.031811 -1.32661,1.031811 h -2.65323 v 19.850079 q 0,3.14457 -2.35842,5.45386 -2.35843,2.30929 -5.74867,2.30929 h -5.60126 q -1.32661,0 -1.32661,-1.03181 0,-0.98268 1.32661,-0.98268 h 5.69953 q 2.50583,0 4.22551,-1.76882 1.76882,-1.76882 1.76882,-4.27464 v -6.338272 q -3.24283,4.765982 -8.40189,4.765982 -4.17637,0 -7.17354,-3.046297 -2.94803,-3.046299 -2.94803,-7.320944 0,-4.274646 2.94803,-7.271811 2.99717,-3.046299 7.17354,-3.046299 5.20819,0 8.40189,4.765984 z m -8.25448,-2.751496 q -3.43938,0 -5.84693,2.407559 -2.40756,2.407559 -2.40756,5.896063 0,3.488504 2.40756,5.945196 2.40755,2.407559 5.84693,2.407559 3.43937,0 5.84692,-2.407559 2.40756,-2.407559 2.40756,-5.846929 0,-3.586771 -2.40756,-5.99433 -2.35842,-2.407559 -5.84692,-2.407559 z"
       id="consulting"
       style="font-size:49.1339px;font-family:FreeMono;fill:#434662"
       aria-label="Consulting" />
  </g>
</svg>
